<?xml version="1.0" standalone="no"?><!DOCTYPE svg PUBLIC "-//W3C//DTD SVG 1.1//EN" "http://www.w3.org/Graphics/SVG/1.1/DTD/svg11.dtd"><svg t="1586744930715" class="icon" viewBox="0 0 1024 1024" version="1.1" xmlns="http://www.w3.org/2000/svg" p-id="24197" xmlns:xlink="http://www.w3.org/1999/xlink" width="200" height="200"><defs><style type="text/css"></style></defs><path d="M512 0C228.8 0 0 228.8 0 512s228.8 512 512 512 512-228.8 512-512S795.2 0 512 0z m128 288h192v64H640v-64z m-112 321.6c0 147.2-152 142.4-152 142.4H128V272h248c75.2 0 134.4 41.6 134.4 128s-73.6 91.2-73.6 91.2c97.6 0 91.2 118.4 91.2 118.4z m203.2 65.6c80 0 76.8-51.2 76.8-51.2h84.8c0 137.6-163.2 128-163.2 128C531.2 752 544 568 544 568S544 384 728 384c193.6 0 166.4 208 166.4 208H646.4c0 89.6 84.8 83.2 84.8 83.2z m-355.2-136h-139.2v128h132.8c19.2 0 56-6.4 56-62.4 1.6-67.2-49.6-65.6-49.6-65.6z m33.6-131.2c0-49.6-33.6-49.6-33.6-49.6h-139.2V464H368c22.4 0 41.6-6.4 41.6-56z m320 46.4c-73.6 0-84.8 73.6-84.8 73.6h156.8c1.6 0 1.6-73.6-72-73.6z" fill="#ffffff" p-id="24198"></path></svg>