<?xml version="1.0" standalone="no"?><!DOCTYPE svg PUBLIC "-//W3C//DTD SVG 1.1//EN" "http://www.w3.org/Graphics/SVG/1.1/DTD/svg11.dtd"><svg t="1586683763626" class="icon" viewBox="0 0 1024 1024" version="1.1" xmlns="http://www.w3.org/2000/svg" p-id="7417" xmlns:xlink="http://www.w3.org/1999/xlink" width="200" height="200"><defs><style type="text/css"></style></defs><path d="M476.98392 498.776337a69.009382 69.009382 0 0 0 22.441021-16.474045 64.080141 64.080141 0 0 0 12.971689-42.676855 73.419756 73.419756 0 0 0-12.971689-44.233457c-14.917442-19.9764-40.341951-30.353751-76.143811-30.872618H281.500576v289.657802h132.311222a207.547014 207.547014 0 0 0 41.509403-3.76179A81.59192 81.59192 0 0 0 488.528723 635.757366a78.997582 78.997582 0 0 0 20.754702-22.700455 83.27824 83.27824 0 0 0 12.971688-46.308927 75.624943 75.624943 0 0 0-11.415086-42.417421 65.636743 65.636743 0 0 0-33.856107-25.554226zM340.132608 415.238663h63.820707a112.983406 112.983406 0 0 1 34.764125 4.540091A25.943377 25.943377 0 0 1 454.153749 446.111282a27.240546 27.240546 0 0 1-11.933953 25.943376 60.058917 60.058917 0 0 1-31.132053 7.264146h-71.344286zM441.18206 598.917771a71.084852 71.084852 0 0 1-29.834883 5.058959h-71.214569v-77.830131h72.252304A75.235793 75.235793 0 0 1 441.18206 531.983859a31.002335 31.002335 0 0 1 18.808949 31.132052A36.580161 36.580161 0 0 1 441.18206 598.917771zM585.167802 378.009918h125.825377v36.061293h-125.825377zM737.455424 476.075882A87.299463 87.299463 0 0 0 700.615829 444.424962a124.398492 124.398492 0 0 0-51.886754-10.117917 105.71926 105.71926 0 0 0-77.83013 29.705167c-19.9764 19.846683-29.9646 48.254681-29.964601 85.483426q0 59.280616 33.207523 85.742861a119.339533 119.339533 0 0 0 76.403244 25.943376 106.627279 106.627279 0 0 0 81.721637-31.261769 70.176834 70.176834 0 0 0 21.014135-38.915065h-57.594296a46.179211 46.179211 0 0 1-11.67452 14.787725 47.995247 47.995247 0 0 1-31.521202 9.858483 58.632032 58.632032 0 0 1-31.261769-8.042447 51.886754 51.886754 0 0 1-22.700455-45.271192h158.124881a288.749784 288.749784 0 0 0-1.816036-42.547138 104.940959 104.940959 0 0 0-17.382062-43.71459z m-137.629614 49.811283A57.85373 57.85373 0 0 1 615.002685 493.068794a45.400909 45.400909 0 0 1 33.72639-12.971689 50.459868 50.459868 0 0 1 33.72639 11.544803 46.698078 46.698078 0 0 1 15.176875 33.856107z" fill="#ffffff" p-id="7418"></path><path d="M512.137196 1024a511.992541 511.992541 0 1 1 511.862824-511.862824 512.381692 512.381692 0 0 1-511.862824 511.862824z m0-984.9403a473.077476 473.077476 0 1 0 472.947759 473.077476A473.596344 473.596344 0 0 0 512.137196 39.0597z" fill="#ffffff" p-id="7419"></path></svg>