<?xml version="1.0" standalone="no"?><!DOCTYPE svg PUBLIC "-//W3C//DTD SVG 1.1//EN" "http://www.w3.org/Graphics/SVG/1.1/DTD/svg11.dtd"><svg t="1586709973846" class="icon" viewBox="0 0 1024 1024" version="1.1" xmlns="http://www.w3.org/2000/svg" p-id="6518" xmlns:xlink="http://www.w3.org/1999/xlink" width="200" height="200"><defs><style type="text/css"></style></defs><path d="M967 1019.1H357.2c-15.3 0-29.6-6-40.4-16.8L16.6 700.9C5.9 690.2 0 675.9 0 660.7V61.9c0-31.4 25.6-57 57-57h910c31.4 0 57 25.6 57 57v900.2c0 31.4-25.6 57-57 57zM57 47.7c-7.9 0-14.2 6.4-14.2 14.2v598.8c0 3.8 1.5 7.4 4.2 10.1l300.2 301.4c2.7 2.7 6.3 4.2 10.1 4.2H967c7.9 0 14.2-6.4 14.2-14.2V61.9c0-7.9-6.4-14.2-14.2-14.2H57z" p-id="6519" fill="#ffffff"></path><path d="M363.8 997.7H321V711.1c0-7.9-6.4-14.2-14.2-14.2H21.4V654h285.4c31.4 0 57 25.6 57 57v286.7zM865.7 209.6H512c-11.8 0-21.4-9.6-21.4-21.4s9.6-21.4 21.4-21.4h353.7c11.8 0 21.4 9.6 21.4 21.4s-9.6 21.4-21.4 21.4zM865.7 371.5H429.6c-11.8 0-21.4-9.6-21.4-21.4 0-11.8 9.6-21.4 21.4-21.4h436.1c11.8 0 21.4 9.6 21.4 21.4 0 11.8-9.6 21.4-21.4 21.4zM865.7 533.4H512c-11.8 0-21.4-9.6-21.4-21.4 0-11.8 9.6-21.4 21.4-21.4h353.7c11.8 0 21.4 9.6 21.4 21.4 0 11.8-9.6 21.4-21.4 21.4z" p-id="6520" fill="#ffffff"></path></svg>