<?xml version="1.0" standalone="no"?><!DOCTYPE svg PUBLIC "-//W3C//DTD SVG 1.1//EN" "http://www.w3.org/Graphics/SVG/1.1/DTD/svg11.dtd"><svg t="1586624122297" class="icon" viewBox="0 0 1024 1024" version="1.1" xmlns="http://www.w3.org/2000/svg" p-id="3507" xmlns:xlink="http://www.w3.org/1999/xlink" width="200" height="200"><defs><style type="text/css"></style></defs><path d="M358.8608 425.45706667h325.11253333v119.10506666H358.8608V425.45706667z" fill="#ffffff" p-id="3508"></path><path d="M809.38026667-2.41706667H232.704c-129.09866667 0-233.7856 105.20853333-233.7856 234.99306667v579.59786667c0 129.77813333 104.6976 234.95786667 233.7856 234.95786666h576.67626667c129.12853333 0 233.80586667-105.1776 233.80586666-234.95786666V232.576c0-129.77813333-104.6976-234.99306667-233.80586666-234.99306667z m-564.90666667 238.2752h553.1968v62.3168H244.4736v-62.3168z m48.03306667 370.89493334V363.2096h457.06026666v243.54346667H292.50666667z m520.83413333 202.0736H228.83413333V747.22133333h170.31786667c-15.59466667-32.76053333-35.93173333-68.01386667-61.14026667-105.82933333l61.14026667-24.16426667c24.27306667 35.9456 45.93066667 79.2928 65.12426667 130.05973334h115.73013333c22.94826667-39.2064 43.01546667-82.5984 60.31786667-130.05973334l66.44373333 24.16426667c-17.328 40.09066667-36.12586667 75.36106667-56.01493333 105.82933333H813.376v61.60533334z" fill="#ffffff" p-id="3509"></path></svg>