<?xml version="1.0" standalone="no"?><!DOCTYPE svg PUBLIC "-//W3C//DTD SVG 1.1//EN" "http://www.w3.org/Graphics/SVG/1.1/DTD/svg11.dtd"><svg t="1586684681987" class="icon" viewBox="0 0 1024 1024" version="1.1" xmlns="http://www.w3.org/2000/svg" p-id="17630" xmlns:xlink="http://www.w3.org/1999/xlink" width="200" height="200"><defs><style type="text/css"></style></defs><path d="M768 298.666667c25.6 0 42.666667-17.066667 42.666667-42.666667V85.333333c0-25.6-17.066667-42.666667-42.666667-42.666666h-128c-140.8 0-256 115.2-256 256v85.333333H298.666667c-25.6 0-42.666667 17.066667-42.666667 42.666667v170.666666c0 25.6 17.066667 42.666667 42.666667 42.666667h85.333333v298.666667c0 25.6 17.066667 42.666667 42.666667 42.666666h170.666666c25.6 0 42.666667-17.066667 42.666667-42.666666v-298.666667h85.333333c21.333333 0 38.4-12.8 42.666667-34.133333l42.666667-170.666667c4.266667-12.8 0-25.6-8.533334-38.4S780.8 384 768 384h-128V298.666667h128z m-170.666667 170.666666h115.2l-21.333333 85.333334H597.333333c-25.6 0-42.666667 17.066667-42.666666 42.666666v298.666667h-85.333334v-298.666667c0-25.6-17.066667-42.666667-42.666666-42.666666H341.333333v-85.333334h85.333334c25.6 0 42.666667-17.066667 42.666666-42.666666V298.666667c0-93.866667 76.8-170.666667 170.666667-170.666667h85.333333v85.333333h-85.333333c-46.933333 0-85.333333 38.4-85.333333 85.333334v128c0 25.6 17.066667 42.666667 42.666666 42.666666z" fill="#ffffff" p-id="17631"></path></svg>