<?xml version="1.0" standalone="no"?><!DOCTYPE svg PUBLIC "-//W3C//DTD SVG 1.1//EN" "http://www.w3.org/Graphics/SVG/1.1/DTD/svg11.dtd"><svg t="1586676512628" class="icon" viewBox="0 0 1024 1024" version="1.1" xmlns="http://www.w3.org/2000/svg" p-id="6766" xmlns:xlink="http://www.w3.org/1999/xlink" width="200" height="200"><defs><style type="text/css"></style></defs><path d="M93.184 675.328c31.232-0.512 55.296 16.896 75.776 37.888 17.92 18.432 33.28 38.912 49.152 58.88 33.28 42.496 77.824 49.152 126.976 39.424 7.68-1.536 15.872-13.824 18.432-23.04 4.608-15.36 3.072-32.768 7.68-47.616 7.68-24.064-3.584-33.28-23.552-38.912-11.264-3.072-23.04-6.656-33.792-10.752-106.496-39.424-154.624-121.856-170.496-229.376-12.288-82.944-3.584-160.768 46.592-231.424 4.608-6.144 4.096-17.92 2.048-26.112-12.288-50.176-5.632-97.792 13.824-145.408 7.168-17.92 17.92-24.576 36.864-23.552 48.64 2.56 90.624 23.04 130.56 47.616 16.896 10.752 32.256 13.824 52.736 9.728 75.264-15.872 150.528-15.36 226.304 0.512 10.752 2.56 25.6-0.512 35.328-6.656 41.984-25.088 84.992-47.104 134.656-52.224 23.552-2.56 36.864 6.144 44.032 28.672 13.824 44.544 18.944 89.6 11.776 136.192-1.536 11.264 1.536 26.112 8.192 35.328 79.36 113.664 47.104 303.616-26.624 387.072-34.816 39.424-80.384 62.464-130.048 78.336-35.84 11.776-33.792 12.288-29.184 48.64 5.12 38.4 5.12 77.824 6.144 117.248 1.024 31.744 0.512 62.976 0 94.72 0 19.968 0 41.472-27.648 44.032-19.456 1.536-29.184-12.8-29.184-45.056-0.512-56.32-1.024-112.64 0-168.96 0.512-28.672-7.68-53.248-26.624-75.264-25.6-30.208-14.336-54.272 25.088-63.488 40.96-9.728 84.992-17.408 120.832-38.4 89.6-52.224 108.544-140.8 104.96-237.056-1.536-44.544-17.408-84.992-46.08-119.808-12.8-15.36-12.8-30.72-9.728-50.176 4.608-28.16 4.608-57.344 4.096-86.016-0.512-18.432-13.824-25.6-30.72-17.408-28.16 14.336-54.784 31.232-83.456 44.032-12.8 6.144-29.184 10.752-41.984 7.68-85.504-22.016-170.496-22.528-255.488 0.512-19.968 5.632-35.328 1.536-52.736-9.728-24.064-15.872-49.664-30.208-75.776-41.472-23.552-10.752-33.28-4.608-35.328 22.016-2.048 22.528-3.072 46.592 3.072 68.096 8.192 29.184 2.56 50.688-15.872 74.752-86.016 113.152-26.112 315.904 107.008 363.52 27.136 9.728 56.32 13.312 84.48 18.944 31.232 5.632 45.568 30.72 26.112 54.272-29.184 35.84-31.744 75.776-30.72 118.272 0.512 39.424 0.512 78.336 0 117.76 0 11.264 1.536 24.064-3.072 32.768-5.12 9.728-17.92 22.016-26.112 20.992-10.24-1.536-24.576-13.824-26.112-23.552-4.096-22.528-2.56-46.08-2.048-68.608 1.024-23.552-8.192-31.232-32.256-29.184-77.312 7.168-123.392-18.944-155.648-89.6-16.896-36.864-38.912-67.584-72.704-90.112-5.12-3.584-8.704-9.216-13.312-13.824 1.024-0.512 2.048-2.56 3.584-5.12z" p-id="6767" fill="#ffffff"></path></svg>