<?xml version="1.0" standalone="no"?><!DOCTYPE svg PUBLIC "-//W3C//DTD SVG 1.1//EN" "http://www.w3.org/Graphics/SVG/1.1/DTD/svg11.dtd"><svg class="icon" width="200px" height="200.00px" viewBox="0 0 1024 1024" version="1.1" xmlns="http://www.w3.org/2000/svg"><path d="M513.1 0.4L7.5 305.3V1024h1011.2V305.3L513.1 0.4z m-125.8 994V755.2h259v239.2h-259z m601.8 0H675.9V725.6H357.7v268.8H37.1V322l476-287 476 287v672.4z" fill="#ffffff" /><path d="M196.951 310.365l244.559-141.2 14.7 25.46-244.559 141.2zM145.6 338.3c-12.9 0-23.4 10.5-23.4 23.4 0 12.9 10.5 23.4 23.4 23.4 12.9 0 23.4-10.5 23.4-23.4 0-12.9-10.5-23.4-23.4-23.4z" fill="#ffffff" /></svg>