<?xml version="1.0" standalone="no"?><!DOCTYPE svg PUBLIC "-//W3C//DTD SVG 1.1//EN" "http://www.w3.org/Graphics/SVG/1.1/DTD/svg11.dtd"><svg t="1586710892735" class="icon" viewBox="0 0 1024 1024" version="1.1" xmlns="http://www.w3.org/2000/svg" p-id="25592" xmlns:xlink="http://www.w3.org/1999/xlink" width="200" height="200"><defs><style type="text/css"></style></defs><path d="M377.856 646.656c0 34.816 28.16 62.976 62.976 62.976s62.976-28.16 62.976-62.976c0-34.816-28.16-62.976-62.976-62.976s-62.976 28.16-62.976 62.976zM595.456 806.4c0 34.816 28.16 62.976 62.976 62.976 34.816 0 62.976-28.16 62.976-62.976s-28.16-62.976-62.976-62.976c-34.816 0.512-62.976 28.672-62.976 62.976z" p-id="25593" fill="#ffffff"></path><path d="M978.944 852.48l-274.432-492.032c-5.632-5.632-11.264-17.408-11.264-28.672V57.344h34.304c17.408 0 28.672-11.264 28.672-28.672S743.936 0 727.04 0H292.352c-17.408 0-28.672 11.264-28.672 28.672s11.264 28.672 28.672 28.672h34.304v274.432c0 11.264 0 23.04-5.632 28.672L46.08 852.48c-17.408 34.304-17.408 79.872 0 114.176 23.04 34.304 57.344 57.344 102.912 57.344H875.52c39.936 0 79.872-23.04 102.912-57.344 17.408-34.304 17.408-79.872 0.512-114.176zM635.392 57.344v274.432c0 23.04 5.632 39.936 17.408 62.976l39.936 68.608H332.288L372.224 389.12c11.264-17.408 17.408-39.936 17.408-57.344V57.344h245.76z m291.84 880.64c-11.264 17.408-28.672 28.672-51.712 28.672H148.992c-23.04 0-39.936-11.264-51.712-28.672-11.264-17.408-11.264-39.936 0-57.344l205.824-366.08H727.04l205.824 366.08c0 17.408 0 40.448-5.632 57.344z" p-id="25594" fill="#ffffff"></path><path d="M658.432 709.12c-51.712 0-97.28 45.568-97.28 97.28s45.568 97.28 97.28 97.28 97.28-45.568 97.28-97.28c0-56.832-39.936-97.28-97.28-97.28z m0 131.584c-23.04 0-39.936-17.408-39.936-39.936s17.408-39.936 39.936-39.936c23.04 0 39.936 17.408 39.936 39.936s-16.896 39.936-39.936 39.936z" p-id="25595" fill="#ffffff"></path></svg>