<?xml version="1.0" standalone="no"?><!DOCTYPE svg PUBLIC "-//W3C//DTD SVG 1.1//EN" "http://www.w3.org/Graphics/SVG/1.1/DTD/svg11.dtd"><svg t="1586710439010" class="icon" viewBox="0 0 1026 1024" version="1.1" xmlns="http://www.w3.org/2000/svg" p-id="16133" xmlns:xlink="http://www.w3.org/1999/xlink" width="200.390625" height="200"><defs><style type="text/css"></style></defs><path d="M180.133933 1023.488256a180.133933 180.133933 0 1 1 127.424288-51.174413 180.133933 180.133933 0 0 1-127.424288 51.174413z m0-284.017991a102.348826 102.348826 0 1 0 102.348826 102.348825 102.348826 102.348826 0 0 0-102.348826-102.348825z m645.309345 180.133933a180.133933 180.133933 0 1 1 127.424288-51.174413 180.133933 180.133933 0 0 1-127.424288 51.174413z m0-284.017991a102.348826 102.348826 0 1 0 102.348826 102.348825 102.348826 102.348826 0 0 0-102.348826-102.348825z m0 0" p-id="16134" fill="#ffffff"></path><path d="M360.77961 836.701649h-76.761619V164.781609a102.348826 102.348826 0 0 1 102.348826-102.348825L916.021989 0a102.348826 102.348826 0 0 1 102.348826 102.348826l-12.281859 665.267366h-76.76162l16.375812-665.267366a27.122439 27.122439 0 0 0-25.587206-27.122439L390.46077 137.147426a27.122439 27.122439 0 0 0-27.122439 27.122439z m0 0" p-id="16135" fill="#ffffff"></path><path d="M329.051474 290.158921l634.562719-71.132434 8.69965 76.249875L337.751124 366.408796z m0 0" p-id="16136" fill="#ffffff"></path></svg>