<?xml version="1.0" standalone="no"?><!DOCTYPE svg PUBLIC "-//W3C//DTD SVG 1.1//EN" "http://www.w3.org/Graphics/SVG/1.1/DTD/svg11.dtd"><svg t="1586710796937" class="icon" viewBox="0 0 1024 1024" version="1.1" xmlns="http://www.w3.org/2000/svg" p-id="24729" xmlns:xlink="http://www.w3.org/1999/xlink" width="200" height="200"><defs><style type="text/css"></style></defs><path d="M1020.200119 1002.144683l-251.896128-251.896128 0 0c75.581638-79.741508 122.300178-187.130152 122.300178-305.398456 0-245.240336-199.545764-444.722102-444.7861-444.722102s-444.722102 199.481766-444.722102 444.722102 199.481766 444.7861 444.722102 444.7861c117.75632 0 224.696978-46.334552 304.31049-121.340208l251.960126 251.960126c4.991844 4.991844 13.11959 4.991844 18.111434 0C1025.255961 1015.200275 1025.255961 1007.136527 1020.200119 1002.144683zM445.818068 863.973001c-231.480766 0-419.122902-187.642136-419.122902-419.122902s187.642136-419.122902 419.122902-419.122902 419.122902 187.642136 419.122902 419.122902S677.298834 863.973001 445.818068 863.973001z" p-id="24730" fill="#ffffff"></path></svg>