<?xml version="1.0" standalone="no"?><!DOCTYPE svg PUBLIC "-//W3C//DTD SVG 1.1//EN" "http://www.w3.org/Graphics/SVG/1.1/DTD/svg11.dtd"><svg t="1586710072989" class="icon" viewBox="0 0 1075 1024" version="1.1" xmlns="http://www.w3.org/2000/svg" p-id="8005" xmlns:xlink="http://www.w3.org/1999/xlink" width="209.9609375" height="200"><defs><style type="text/css"></style></defs><path d="M1024 844.8V179.2a128 128 0 0 0-128-128H179.2a128 128 0 0 0-128 128v665.6a128 128 0 0 0 128 128h716.8a128 128 0 0 0 128-128z m51.2 0a179.2 179.2 0 0 1-179.2 179.2H179.2a179.2 179.2 0 0 1-179.2-179.2V179.2a179.2 179.2 0 0 1 179.2-179.2h716.8a179.2 179.2 0 0 1 179.2 179.2v665.6z" p-id="8006" fill="#ffffff"></path><path d="M435.2 320a89.6 89.6 0 1 0-179.2 0 89.6 89.6 0 0 0 179.2 0z m51.2 0a140.8 140.8 0 1 1-281.6 0 140.8 140.8 0 0 1 281.6 0zM537.6 778.5984l402.0992-402.0992-36.1984-36.1984L537.6 706.2016l-153.6-153.6-222.8992 222.8992 36.1984 36.1984L384 624.9984z" p-id="8007" fill="#ffffff"></path></svg>