<?xml version="1.0" standalone="no"?><!DOCTYPE svg PUBLIC "-//W3C//DTD SVG 1.1//EN" "http://www.w3.org/Graphics/SVG/1.1/DTD/svg11.dtd"><svg t="1586744138609" class="icon" viewBox="0 0 1024 1024" version="1.1" xmlns="http://www.w3.org/2000/svg" p-id="4719" xmlns:xlink="http://www.w3.org/1999/xlink" width="200" height="200"><defs><style type="text/css"></style></defs><path d="M195.047619 341.333333h679.643429l24.380952-97.523809H292.571429V146.285714h669.013333a48.761905 48.761905 0 0 1 47.299048 60.611048l-121.904762 487.619048a48.761905 48.761905 0 0 1-47.299048 36.912761H146.285714a48.761905 48.761905 0 0 1-48.761904-48.761904V97.52381H0V0h146.285714a48.761905 48.761905 0 0 1 48.761905 48.761905v292.571428z m0 682.666667a97.52381 97.52381 0 1 1 0-195.047619 97.52381 97.52381 0 0 1 0 195.047619z m585.142857 0a97.52381 97.52381 0 1 1 0-195.047619 97.52381 97.52381 0 0 1 0 195.047619z" p-id="4720" fill="#ffffff"></path></svg>