<?xml version="1.0" standalone="no"?><!DOCTYPE svg PUBLIC "-//W3C//DTD SVG 1.1//EN" "http://www.w3.org/Graphics/SVG/1.1/DTD/svg11.dtd"><svg t="1586683316357" class="icon" viewBox="0 0 1024 1024" version="1.1" xmlns="http://www.w3.org/2000/svg" p-id="3680" xmlns:xlink="http://www.w3.org/1999/xlink" width="200" height="200"><defs><style type="text/css"></style></defs><path d="M351.207897 831.361585c-35.183314 0-63.704904 28.629038-63.704904 63.945381 0 35.314297 28.52159 63.944358 63.704904 63.944358 35.18229 0 63.703881-28.630061 63.703881-63.944358C414.911778 859.991646 386.390187 831.361585 351.207897 831.361585L351.207897 831.361585 351.207897 831.361585M797.10641 831.361585c-35.183314 0-63.704904 28.629038-63.704904 63.945381 0 35.314297 28.52159 63.944358 63.704904 63.944358 35.181267 0 63.703881-28.630061 63.703881-63.944358C860.810291 859.991646 832.287677 831.361585 797.10641 831.361585L797.10641 831.361585 797.10641 831.361585M860.300684 799.405779 342.953909 799.405779c-45.890166 0-86.234013-36.435841-91.843778-82.978876l-54.016241-381.715725-30.752398-178.400133c-1.912559-15.57779-16.060791-28.27702-29.860075-28.27702l-40.567951 0c-17.591657 0-31.867802-14.331403-31.867802-31.955806 0-17.658172 14.277168-31.988552 31.867802-31.988552l40.567951 0c46.464241 0 87.255273 36.433794 92.895737 82.97683l30.65723 177.727821 54.239322 383.347898c1.784646 14.842033 15.169491 27.349905 28.650527 27.349905l517.345752 0c17.623379 0 31.867802 14.298658 31.867802 31.955806C892.136763 785.107121 877.891318 799.405779 860.300684 799.405779L860.300684 799.405779M382.75745 671.51604c-16.540721 0-30.498618-12.795421-31.740912-29.621645-1.306762-17.624403 11.886725-32.915667 29.382191-34.1948l432.067506-31.955806c15.870456-0.096191 29.222555-12.604062 30.975479-26.806529l50.161447-288.119023c1.27504-10.748808-1.689479-22.520923-8.095375-29.78128-4.110621-4.670369-9.273201-7.037277-15.296381-7.037277L318.829466 223.99968c-17.590634 0-31.867802-14.331403-31.867802-31.955806 0-17.658172 14.277168-31.956829 31.867802-31.956829l551.444361 0c24.347524 0 46.686299 10.139941 62.972217 28.598338 18.61087 21.080108 27.151383 50.765197 23.423479 81.538061l-50.192146 288.150746c-5.417383 44.814672-45.730531 81.250512-91.620697 81.250512L385.115148 671.419849C384.317992 671.483294 383.52186 671.51604 382.75745 671.51604L382.75745 671.51604M382.75745 671.51604" p-id="3681" fill="#ffffff"></path></svg>