<?xml version="1.0" standalone="no"?><!DOCTYPE svg PUBLIC "-//W3C//DTD SVG 1.1//EN" "http://www.w3.org/Graphics/SVG/1.1/DTD/svg11.dtd"><svg t="1586624593538" class="icon" viewBox="0 0 1024 1024" version="1.1" xmlns="http://www.w3.org/2000/svg" p-id="2135" xmlns:xlink="http://www.w3.org/1999/xlink" width="200" height="200"><defs><style type="text/css"></style></defs><path d="M219.9 325.8c44.4 0 80.4-32.4 80.4-72 0-39.7-36-72.1-80.4-72.1-44.4 0-80.3 32.4-80.3 72.1 0 39.7 35.9 72 80.3 72zM153.3 354.9l-50.4 77.8 93.4 58.2s62.2 31.8 32.7 91.5C201 638.9 65 762.7 65 762.7l122 76.1c84-182.9 78.8-158.5 100-224.3 21.7-67.2 26.4-118.4-10.4-155.3-47.6-47.6-52.8-52-123.3-104.3z" p-id="2136" fill="#ffffff"></path><path d="M943.9 334.5s-26.2-205.9-477-78.3c19.1-33.5 28.6-55.5 28.6-55.5l-112.7-31.5s-45.4 148-126.3 217.2c0 0 78.3 45.1 77.5 43.9 22.4-22.4 42.4-45.3 60.1-67.4 17.9-7.9 35.3-15.2 52.2-22.2-20.7 37.6-54.4 93.6-88.1 129.1l47.4 41.5s32.2-31.1 67.6-68.6h40.4v69.2H356.4v55.3h157.2v132.6c-2-0.1-4.1-0.1-6-0.3-17.3-0.8-44.4-3.7-54.8-20.3-12.8-20.3-3.5-57.5-2.8-80.4H341.6l-3.9 2.1s-39.5 177.7 114.6 173.8c144.2 3.9 226.9-40.1 266.5-70.5l15.8 58.8 89-37-60.1-147.5-72.4 22.5 13.6 50.6c-18.6 13.8-40.1 24.1-62.9 31.8v-116H795v-55.3H641.8v-69.2h153.8v-55.2H522.4c19.6-24 35.1-45.8 39.3-59.9L514.1 315c204.2-73.1 318-60.6 317 59.3v315.9S843.2 798.9 718.8 791l-67.2-14.5-15.7 63.9s290.3 82.9 314-140.2c23.7-223.5-6-365.7-6-365.7z" p-id="2137" fill="#ffffff"></path></svg>