<?xml version="1.0" standalone="no"?><!DOCTYPE svg PUBLIC "-//W3C//DTD SVG 1.1//EN" "http://www.w3.org/Graphics/SVG/1.1/DTD/svg11.dtd"><svg t="1586683535977" class="icon" viewBox="0 0 1026 1024" version="1.1" xmlns="http://www.w3.org/2000/svg" p-id="2984" xmlns:xlink="http://www.w3.org/1999/xlink" width="200.390625" height="200"><defs><style type="text/css"></style></defs><path d="M1008.02048 93.866667c-12.8-8.533333-34.133333-8.533333-46.933333 0-29.866667 21.333333-64 38.4-98.133334 51.2-85.333333-76.8-217.6-81.066667-307.2-4.266667-55.466667 46.933333-85.333333 110.933333-85.333333 179.2-123.733333-8.533333-234.666667-72.533333-307.2-174.933333-8.533333-12.8-21.333333-17.066667-38.4-17.066667s-29.866667 12.8-34.133333 25.6C86.42048 157.866667 43.753813 260.266667 48.02048 384c4.266667 106.666667 46.933333 243.2 204.8 341.333333-64 29.866667-136.533333 42.666667-209.066667 42.666667-17.066667 0-38.4 12.8-42.666666 29.866667-4.266667 17.066667 4.266667 38.4 21.333333 46.933333 106.666667 59.733333 221.866667 89.6 328.533333 89.6s209.066667-25.6 302.933334-81.066667c183.466667-102.4 285.866667-298.666667 285.866666-533.333333V298.666667c42.666667-46.933333 72.533333-102.4 85.333334-162.133334 4.266667-17.066667-4.266667-34.133333-17.066667-42.666666zM862.953813 256c-8.533333 8.533333-12.8 25.6-12.8 38.4 4.266667 8.533333 4.266667 17.066667 4.266667 25.6 0 204.8-89.6 371.2-243.2 460.8-119.466667 68.266667-260.266667 85.333333-401.066667 51.2 55.466667-17.066667 106.666667-38.4 153.6-72.533333 17.066667-8.533333 21.333333-21.333333 21.333334-38.4s-12.8-29.866667-25.6-34.133334c-247.466667-110.933333-238.933333-320-213.333334-426.666666C240.02048 354.133333 372.287147 409.6 513.087147 405.333333c21.333333 0 42.666667-21.333333 42.666666-42.666666v-42.666667c0-42.666667 17.066667-85.333333 51.2-115.2 59.733333-55.466667 157.866667-46.933333 209.066667 12.8 12.8 12.8 29.866667 17.066667 42.666667 12.8 8.533333-4.266667 21.333333-4.266667 29.866666-8.533333-8.533333 12.8-17.066667 21.333333-25.6 34.133333z" fill="#ffffff" p-id="2985"></path></svg>