<?xml version="1.0" standalone="no"?><!DOCTYPE svg PUBLIC "-//W3C//DTD SVG 1.1//EN" "http://www.w3.org/Graphics/SVG/1.1/DTD/svg11.dtd"><svg t="1586269999350" class="icon" viewBox="0 0 1024 1024" version="1.1" xmlns="http://www.w3.org/2000/svg" p-id="1958" xmlns:xlink="http://www.w3.org/1999/xlink" width="200" height="200"><defs><style type="text/css"></style></defs><path d="M1024.0512 199.3728a424.9088 424.9088 0 0 1-120.6784 32.5632 207.9744 207.9744 0 0 0 92.3648-114.3808c-40.5504 23.6544-85.504 40.9088-133.376 50.176A211.456 211.456 0 0 0 709.0176 102.4c-116.0192 0-210.0736 92.5696-210.0736 206.848 0 16.1792 1.8432 31.9488 5.4272 47.104a599.552 599.552 0 0 1-432.9984-216.064 203.4688 203.4688 0 0 0-28.4672 103.936c0 71.7824 37.12 135.0656 93.4912 172.1344a212.1216 212.1216 0 0 1-95.1808-25.856v2.56c0 100.1984 72.3968 183.808 168.448 202.8032a214.4768 214.4768 0 0 1-94.8224 3.584c26.7264 82.1248 104.2944 141.9264 196.2496 143.616a425.8304 425.8304 0 0 1-260.9152 88.576A431.104 431.104 0 0 1 0.0512 828.672 601.4464 601.4464 0 0 0 322.0992 921.6c386.4064 0 597.7088-315.136 597.7088-588.3904 0-8.96-0.2048-17.92-0.6144-26.7776A422.3488 422.3488 0 0 0 1024.0512 199.424z" fill="#ffffff" p-id="1959"></path></svg>