<?xml version="1.0" standalone="no"?><!DOCTYPE svg PUBLIC "-//W3C//DTD SVG 1.1//EN" "http://www.w3.org/Graphics/SVG/1.1/DTD/svg11.dtd"><svg t="1586683432120" class="icon" viewBox="0 0 1308 1024" version="1.1" xmlns="http://www.w3.org/2000/svg" p-id="2162" xmlns:xlink="http://www.w3.org/1999/xlink" width="255.46875" height="200"><defs><style type="text/css"></style></defs><path d="M1213.547 916.387c61.3-56.020 98.503-129.62 98.503-210.22 0-140.274-112.667-259.308-268.972-301.473-9.326-224.769-238.127-404.694-519.055-404.694-286.847 0-519.379 187.566-519.379 418.951 0 106.257 49.038 203.27 129.851 277.118 25.287 23.116-4.323 86.359-40.694 138.608 61.473-16.979 127.046-28.028 184.436-28.028 26.88 0 51.965 2.421 73.991 7.797 53.77 15.191 111.589 23.466 171.794 23.466 11.69 0 23.295-0.351 34.797-0.966 61.806 110.297 199.403 187.054 359.216 187.054 45.675 0 89.534-6.273 130.329-17.81 16.705-4.073 35.74-5.913 56.123-5.913 43.543 0 93.283 8.387 139.915 21.267-27.583-39.641-50.047-87.609-30.86-105.145v-0.013zM524.025 761.375c-51.869 0-102.67-6.923-150.972-20.575l-1.334-0.377-1.353-0.332c-27.138-6.617-58.128-9.979-92.119-9.979-19.529 0-39.043 1.078-58.119 2.909 4.049-44.845-13.136-74.369-34-93.445-33.711-30.801-59.889-65.426-77.819-102.927-18.005-37.654-27.136-77.253-27.136-117.697 0-88.313 43.911-172.359 123.646-236.681 40.711-32.839 88.406-58.717 141.755-76.921 56.054-19.126 115.765-28.823 177.46-28.823 61.689 0 121.396 9.697 177.453 28.823 53.353 18.204 101.045 44.082 141.763 76.921 71.153 57.398 113.754 130.527 122.097 208.362v0c-15.507-1.499-31.289-2.285-47.309-2.285-217.605 0-394.005 142.286-394.005 317.82 0 18.811 2.038 37.245 5.922 55.157 0-0.010 0-0.010 0-0.010-1.975 0.018-3.952 0.059-5.932 0.059v0zM1161.918 859.904c-12.367 11.305-28.678 32.085-31.638 64.595-8.549-0.489-17.159-0.754-25.786-0.754-27.257 0-52.239 2.721-74.259 8.095l-1.343 0.334-1.334 0.368c-35.019 9.903-71.862 14.918-109.517 14.918-44.759 0-88.053-7.026-128.654-20.873-38.417-13.101-72.71-31.691-101.91-55.243-56.047-45.222-86.925-103.878-86.925-165.171 0-61.309 30.878-119.967 86.925-165.179 29.2-23.552 63.485-42.139 101.91-55.251 40.608-13.846 83.895-20.871 128.654-20.871 44.768 0 88.053 7.026 128.663 20.871 38.417 13.11 72.71 31.7 101.91 55.251 56.047 45.213 86.925 103.869 86.925 165.179 0 27.898-6.325 55.26-18.784 81.318-12.571 26.29-31.014 50.655-54.831 72.419v-0.007zM296.107 337.051c0.421-44.167 28.054-79.76 62.089-79.76 34.291 0 62.089 36.14 62.089 80.718 0 44.58-27.798 80.72-62.089 80.72-34.035 0-61.668-35.602-62.081-79.711l-0.007-1.967zM619.081 337.051c0.412-44.167 28.045-79.76 62.081-79.76 34.291 0 62.089 36.14 62.089 80.718 0 44.58-27.798 80.72-62.089 80.72-34.035 0-61.668-35.602-62.081-79.711v-1.967zM762.22 647.109c0.412-33.95 21.679-61.259 47.847-61.259 26.427 0 47.849 27.857 47.849 62.21 0 34.361-21.42 62.218-47.849 62.218-26.17 0-47.438-27.318-47.849-61.207v-1.959zM992.759 647.109c0.412-33.95 21.679-61.259 47.849-61.259 26.429 0 47.857 27.857 47.857 62.21 0 34.361-21.429 62.218-47.857 62.218-26.17 0-47.436-27.318-47.849-61.207v-1.959zM992.759 647.109z" p-id="2163" fill="#ffffff"></path></svg>