<?xml version="1.0" standalone="no"?><!DOCTYPE svg PUBLIC "-//W3C//DTD SVG 1.1//EN" "http://www.w3.org/Graphics/SVG/1.1/DTD/svg11.dtd"><svg t="1586744243390" class="icon" viewBox="0 0 1281 1024" version="1.1" xmlns="http://www.w3.org/2000/svg" p-id="5546" xmlns:xlink="http://www.w3.org/1999/xlink" width="250.1953125" height="200"><defs><style type="text/css"></style></defs><path d="M948.258158 497.845035c-49.914878-9.498727-26.074936-36.87741-26.074936-36.87741s48.611131-80.832303-9.498727-138.942161C840.233422 249.574391 664.600101 331.524191 664.600101 331.524191c-66.491088 20.114951-48.611131-9.498727-39.112405-61.834849 0-60.531102-21.418698-163.8996-200.59076-102.064751-178.427064 60.717352-331.524191 275.649327-331.524191 275.649327C-13.534494 585.75482 0.620472 694.897053 0.620472 694.897053c26.074936 243.428156 284.961804 309.919243 485.552564 325.377956 211.393234 16.57621 496.355038-72.451073 582.961077-256.465624 86.792288-184.014551-70.961077-256.465624-120.875955-265.96435zM501.817998 952.666424c-210.089487 9.498727-379.949072-96.104765-379.949072-236.350673 0-140.059658 169.859585-251.623136 379.949072-261.308112 210.089487-9.498727 379.949072 75.989814 379.949072 216.049473 0 140.245908-169.859585 272.110586-379.949072 281.609312z m0 0" fill="#ffffff" p-id="5547"></path><path d="M460.28435 546.642415c-211.393234 24.957439-187.553292 223.313205-187.553293 223.313205s-1.117497 61.648599 56.992361 93.869771c123.483449 66.491088 250.505638 26.074936 314.575482-55.874864 64.069844-83.253547 27.192434-285.148054-184.01455-261.308112z m-53.45362 277.698072c-39.112405 4.842488-71.147326-17.879956-71.147326-51.032375 0-33.338669 28.49618-67.608585 67.608585-71.147326 45.07239-4.842488 74.872317 21.418698 74.872317 54.571117-0.18625 33.152419-32.221171 62.952346-71.333576 67.608584z m124.600946-105.603492c-14.341215 9.498727-29.613678 8.38123-36.87741-3.538741-8.38123-11.919971-4.656239-30.917425 8.381229-40.416151 15.458712-11.919971 32.034922-8.38123 39.112405 3.538741 7.263732 11.919971 1.303747 29.799927-10.616224 40.416151z m0 0" fill="#ffffff" p-id="5548"></path><path d="M1051.626656 412.356493c16.57621 0 30.917425-13.037468 33.152419-29.613677 0-1.117497 1.117497-2.421244 1.117497-3.538742C1110.854011 147.695889 895.922036 188.112041 895.922036 188.112041c-18.997454 0-34.456166 15.458712-34.456166 34.456166S876.924582 257.024372 895.922036 257.024372c154.400873-34.456166 119.944707 121.062204 119.944707 121.062205 0 18.811204 15.458712 34.269916 35.759913 34.269916z m0 0" fill="#ffffff" p-id="5549"></path><path d="M1025.36547 8.567479c-73.56857-17.879956-150.862132-2.979993-172.09458 1.862496-1.117497 0-3.538741 0.931248-4.842488 0.931247-1.117497 0-1.117497 1.117497-1.117497 1.117498-21.418698 5.959985-36.87741 26.074936-36.87741 48.611131 0 27.378683 22.536195 49.914878 49.914878 49.914878 0 0 27.378683-3.538741 46.376137-10.802474 17.879956-7.077483 172.09458-4.842488 249.388141 123.483449 41.533649 93.869771 17.879956 156.822117 15.458712 167.438341 0 0-10.616224 23.839942-10.616224 48.611131 0 27.378683 22.536195 46.189887 51.032375 46.189888 22.536195 0 42.837395 1.117497 47.493634-41.533649h1.117498c81.76355-292.970535-100.947254-404.906511-235.233176-435.823936z m0 0" fill="#ffffff" p-id="5550"></path></svg>