<?xml version="1.0" standalone="no"?><!DOCTYPE svg PUBLIC "-//W3C//DTD SVG 1.1//EN" "http://www.w3.org/Graphics/SVG/1.1/DTD/svg11.dtd"><svg t="1586684392525" class="icon" viewBox="0 0 1024 1024" version="1.1" xmlns="http://www.w3.org/2000/svg" p-id="11778" xmlns:xlink="http://www.w3.org/1999/xlink" width="200" height="200"><defs><style type="text/css"></style></defs><path d="M387.5 717.4c-20.7 0-40.5-6.3-56.2-18-18.2-13.5-29.2-33.4-30.3-54.4-1.1-21.1 7.8-42 24.5-57.3 15.6-14.4 36.7-23 59.4-24.2 22.6-1.2 44.5 5.1 61.6 17.8 18.2 13.5 29.2 33.4 30.3 54.4 1.1 21.1-7.8 42-24.5 57.3-15.6 14.4-36.7 23-59.4 24.2-1.8 0.1-3.6 0.2-5.4 0.2z m2.6-106.1c-0.9 0-1.8 0-2.8 0.1-21.7 1.1-39.3 15.4-38.4 31.1 0.8 15.7 19.8 28 41.5 26.9 21.7-1.1 39.3-15.4 38.4-31.1-0.8-15.1-18.2-27-38.7-27z" p-id="11779" fill="#ffffff"></path><path d="M413.8 783.8c-47.4 0-92.4-11.2-128.5-32.3-44.4-25.9-70.4-63.6-73.4-106.2-3-42.5 17.6-83.5 57.9-115.4 37.7-29.8 88.8-48.3 143.9-52.1 55.1-3.9 108.3 7.4 149.7 31.6 44.4 25.9 70.4 63.6 73.4 106.2 3 42.5-17.6 83.5-57.9 115.4-37.7 29.8-88.8 48.3-143.9 52.1-7.1 0.4-14.2 0.7-21.2 0.7zM435 525c-6 0-12 0.2-18 0.6-45.6 3.2-87.3 18.1-117.5 41.9-27.5 21.7-41.6 48.1-39.8 74.4 1.8 26.2 19.5 50.4 49.8 68.1 33.2 19.4 76.6 28.3 122.2 25.1 45.6-3.2 87.3-18.1 117.5-41.9 27.5-21.7 41.6-48.1 39.8-74.4-1.8-26.2-19.5-50.4-49.8-68.1C510.4 534 473.9 525 435 525z" p-id="11780" fill="#ffffff"></path><path d="M443.2 896c-43.9 0-86.6-3.7-124.9-10.9-60.4-11.3-114.5-35-156.6-68.5-50.5-40.2-82.3-92.5-94.5-155.5-6.3-32.5-3.1-67.7 9.5-104.5 10-29.3 26.1-59.8 47.8-90.7 37.2-53 82.1-94.5 100.7-109 1.6-1.2 3.4-2.7 5.4-4.3 20.5-16.2 63.3-49.8 108-74.4 26.1-14.4 49.6-23.7 69.9-27.9 28.6-5.8 52.2-1.7 70 12.3 40.1 31.5 48.8 78.2 49.4 110.7 16.7-4.3 38.1-9.2 59.8-13 64-11.1 100.8-7.3 119.2 12.3 17.1 18.2 22.5 47.2 16.3 86.4-2.2 13.7-5.5 26.8-8.5 36.9 15.8 8.3 37.6 19.9 46.6 25.1 23.8 14 69.9 55.4 74.4 112 4.6 58.2-24 118.3-76.4 160.9-55.1 44.7-107.7 72.7-160.6 85.6-32.7 8-76.8 13.6-121.2 15.5-11.6 0.7-23 1-34.3 1zM432 295.9c-16.5 0-40.9 8.4-70.3 24.6-41.3 22.7-81.9 54.7-101.4 70-2.1 1.6-4 3.1-5.6 4.4-34.9 27.2-161 150.7-140.4 257.2C140.8 788.9 272 827.6 327.1 838c107.4 20.1 217.1 5.6 260-4.8C633 822 679.3 797.1 728.8 757c40.2-32.6 62.2-77.4 58.8-119.8-3-38.1-38.6-67.2-50.9-74.4-12.1-7.1-54.6-29.3-61.6-32.9-11.3-5.8-16.5-19.1-12-31.1 0.9-2.4 8.8-23.8 12.5-47 4.1-25.9 0.9-40.5-3.6-45.7-1.5-0.9-17.1-8.8-79.9 2.5-38.6 7-75.4 17.6-82.4 19.7-8.3 2.5-17.2 0.5-23.7-5.3s-9.5-14.4-8-23c1.2-6.9 10.5-68-29.3-99.4-4-3.1-9.6-4.7-16.7-4.7zM697 487zM496.1 382.2zM807.7 436h-0.6c-13.3-0.3-23.7-11.4-23.4-24.6 0.4-15.3-2.6-63.6-20.5-83.9-15.5-17.5-60.5-20.6-79.9-19.3-13.2 0.9-24.7-9.1-25.5-22.4-0.9-13.2 9.1-24.7 22.4-25.5 8.5-0.6 84-4.3 119 35.4 33.6 38 32.7 109 32.5 116.9-0.4 13-11.1 23.4-24 23.4z" p-id="11781" fill="#ffffff"></path><path d="M927.1 470c-2.3 0-4.7-0.3-7-1.1-12.7-3.9-19.8-17.3-15.9-30 0.1-0.2 9-30.6 7.7-71.1-1.8-52.5-19.3-96.9-52.1-131.9-32.7-34.9-74.3-54.8-123.6-59.1-37.9-3.3-66.5 4.3-66.8 4.3-12.8 3.5-26-4-29.5-16.7-3.5-12.8 4-26 16.7-29.6 1.4-0.4 35.7-9.7 81.7-6 61.4 4.9 115.5 30.6 156.4 74.3 40.8 43.6 63.3 100.6 65.1 165 1.3 48-9.4 83.5-9.8 84.9-3.1 10.4-12.6 17-22.9 17z" p-id="11782" fill="#ffffff"></path></svg>