<?xml version="1.0" standalone="no"?><!DOCTYPE svg PUBLIC "-//W3C//DTD SVG 1.1//EN" "http://www.w3.org/Graphics/SVG/1.1/DTD/svg11.dtd"><svg t="1586710645394" class="icon" viewBox="0 0 1024 1024" version="1.1" xmlns="http://www.w3.org/2000/svg" p-id="23268" xmlns:xlink="http://www.w3.org/1999/xlink" width="200" height="200"><defs><style type="text/css"></style></defs><path d="M512 605.090909c-13.963636 0-27.927273 11.636364-27.927273 27.927273v232.727273c-37.236364-25.6-81.454545-41.890909-125.672727-41.89091l-197.818182 2.327273c-18.618182 0-37.236364-4.654545-53.527273-16.290909-30.254545-18.618182-46.545455-51.2-46.545454-86.109091 2.327273-132.654545 4.654545-470.109091 4.654545-572.509091 0-18.618182 6.981818-37.236364 20.945455-48.872727 11.636364-13.963636 30.254545-20.945455 48.872727-20.945455h223.418182c32.581818 0 65.163636 13.963636 88.436364 37.236364s37.236364 55.854545 37.236363 88.436364V372.363636c0 13.963636 11.636364 27.927273 27.927273 27.927273 13.963636 0 27.927273-11.636364 27.927273-27.927273V204.8c0-32.581818 13.963636-65.163636 37.236363-88.436364s55.854545-37.236364 90.763637-37.236363h223.418182c18.618182 0 37.236364 6.981818 48.872727 20.945454 13.963636 13.963636 20.945455 32.581818 20.945454 51.2v605.090909c0 30.254545-18.618182 62.836364-65.163636 62.836364h-230.4c-46.545455 0-90.763636 16.290909-125.672727 41.890909V628.363636c0-11.636364-13.963636-23.272727-27.927273-23.272727z m0 393.309091c13.963636 0 25.6-9.309091 30.254545-23.272727 6.981818-23.272727 25.6-46.545455 41.89091-62.836364 20.945455-20.945455 51.2-34.909091 81.454545-34.909091h232.727273c30.254545 0 60.509091-11.636364 81.454545-34.909091 20.945455-20.945455 34.909091-51.2 34.909091-81.454545V141.963636c0-30.254545-11.636364-60.509091-34.909091-81.454545-20.945455-20.945455-51.2-34.909091-81.454545-34.909091h-232.727273c-62.836364 0-118.690909 30.254545-155.927273 79.127273-34.909091-48.872727-90.763636-79.127273-155.927272-79.127273h-232.727273c-27.927273 0-55.854545 13.963636-79.127273 34.909091C20.945455 81.454545 9.309091 111.709091 9.309091 141.963636v619.054546c0 30.254545 11.636364 60.509091 34.909091 81.454545 20.945455 20.945455 51.2 34.909091 81.454545 34.909091h232.727273c30.254545 0 60.509091 11.636364 81.454545 34.909091 16.290909 16.290909 34.909091 39.563636 41.89091 62.836364 4.654545 13.963636 16.290909 23.272727 30.254545 23.272727zM898.327273 25.6" fill="#ffffff" p-id="23269"></path><path d="M486.4 449.163636c0-13.963636 11.636364-25.6 25.6-25.6 13.963636 0 25.6 11.636364 25.6 25.6 0 13.963636-11.636364 25.6-25.6 25.6-13.963636 2.327273-25.6-9.309091-25.6-25.6z" fill="#ffffff" p-id="23270"></path></svg>