<?xml version="1.0" standalone="no"?><!DOCTYPE svg PUBLIC "-//W3C//DTD SVG 1.1//EN" "http://www.w3.org/Graphics/SVG/1.1/DTD/svg11.dtd"><svg class="icon" width="200px" height="200.00px" viewBox="0 0 1024 1024" version="1.1" xmlns="http://www.w3.org/2000/svg"><path d="M512 64c93.47 0 182.636 28.736 257.284 81.2l1.345 0.952 1.722-0.798c17.342-7.99 32.945-13.466 46.791-16.265l0.847-0.168c11.089-2.166 21.334-2.67 30.84-1.19 11.792 1.834 22.29 6.728 30.5 14.94 6.295 6.293 10.64 13.93 13.152 22.464 2.321 4.613 3.806 9.633 4.523 14.899 0.98 7.207 0.523 14.736-1.07 22.784-1.365 6.892-3.614 14.364-6.714 22.467l-0.677 1.746a245.758 245.758 0 0 1-5.03 11.827l-0.87 1.894a327.171 327.171 0 0 1-2.762 5.805l-0.482 0.985c-0.45 0.917-0.91 1.841-1.377 2.773l-0.947 1.873-0.867 1.693 0.592 0.835c51.381 73.107 80.003 160.139 81.163 251.5l0.027 2.77L960 512c0 247.424-200.576 448-448 448-93.47 0-182.636-28.736-257.284-81.2l-1.346-0.953-1.72 0.8c-17.343 7.99-32.946 13.465-46.792 16.264l-0.847 0.168c-6.565 1.282-12.834 1.982-18.83 2.032-15.531 0.465-29.318-3.406-39.877-13.328a50.83 50.83 0 0 1-2.634-2.453c-8.21-8.211-13.105-18.709-14.94-30.5-1.478-9.507-0.975-19.752 1.19-30.841 2.803-14.349 8.513-30.605 16.947-48.748l0.285-0.612-0.952-1.345c-51.9-73.845-80.58-161.899-81.19-254.27L64 512C64 264.576 264.576 64 512 64z m332.193 247.39l-0.44 0.677-1.562 2.384-2.38 3.606-1.611 2.423-1.63 2.438-0.823 1.225-2.496 3.697-1.689 2.483-1.707 2.498-1.726 2.513-1.745 2.527-1.764 2.541-1.782 2.556-1.801 2.57-1.82 2.583-1.838 2.597-1.856 2.61-1.874 2.625-2.845 3.962-0.957 1.327c-62.839 87.018-149.733 188.68-232.124 271.071-80.52 80.52-171.412 154.04-250.362 203.915l-2.388 1.504-1.19 0.746-2.373 1.479-2.36 1.461-2.35 1.445-2.339 1.427-1.408 0.854C372.383 880.738 440.699 900 512 900c214.286 0 388-173.714 388-388 0-71.926-19.601-140.816-55.807-200.61zM512 124c-214.286 0-388 173.714-388 388 0 87.099 28.743 169.744 80.906 237.178a30 30 0 0 1 2.844 32.28l-0.468 0.896-0.922 1.78-0.9 1.762-0.88 1.743-0.432 0.864-0.848 1.715-0.828 1.695-0.806 1.677-0.396 0.83-0.775 1.648-0.38 0.816-0.743 1.618-0.363 0.801-0.712 1.588-0.348 0.786-0.68 1.558-0.66 1.537-0.637 1.516-0.616 1.495-0.596 1.475c-0.195 0.488-0.386 0.972-0.574 1.453l-0.552 1.433-0.269 0.708-0.52 1.4-0.5 1.378c-0.163 0.455-0.322 0.907-0.478 1.356l-0.456 1.334a127.08 127.08 0 0 0-1.961 6.333l-0.328 1.198-0.306 1.175-0.284 1.151a79.316 79.316 0 0 0-0.724 3.311c-0.4 2.05-0.658 3.858-0.798 5.408l0.005-0.075c0.312-0.042 0.632-0.088 0.958-0.139l0.872-0.141c0.295-0.05 0.596-0.104 0.901-0.16l0.93-0.18c0.316-0.063 0.636-0.13 0.96-0.199l0.988-0.217 0.504-0.116 1.03-0.247c0.174-0.042 0.349-0.086 0.525-0.13l1.071-0.275 0.546-0.145 1.111-0.305c0.188-0.052 0.376-0.105 0.566-0.16l1.15-0.333c0.583-0.171 1.175-0.35 1.776-0.536l1.216-0.383 1.24-0.402c0.21-0.069 0.42-0.138 0.63-0.209l1.278-0.431 1.303-0.452 1.36-0.484 1.415-0.515 1.434-0.535c0.481-0.181 0.965-0.366 1.452-0.553l1.471-0.573 1.49-0.592 1.507-0.61 1.525-0.63 1.543-0.647 1.561-0.666 1.578-0.685 0.796-0.35 1.604-0.712 1.622-0.731 1.638-0.75 0.826-0.38 1.663-0.777 1.68-0.794c0.281-0.134 0.563-0.27 0.846-0.404l1.704-0.822 0.859-0.417 1.728-0.849c0.29-0.142 0.58-0.286 0.87-0.43l1.753-0.875 1.768-0.893 1.783-0.91 1.8-0.927 1.813-0.945 1.829-0.963 1.844-0.98 0.927-0.496 1.866-1.005 1.88-1.023 2.847-1.565 1.915-1.065 1.93-1.082 1.942-1.098 1.957-1.115 1.97-1.132 0.99-0.572 1.99-1.157 3.008-1.765 2.021-1.197 2.035-1.214 2.046-1.23 3.093-1.874 2.077-1.27 2.089-1.286 3.155-1.958 2.117-1.325 2.129-1.34c75.091-47.438 162.526-118.162 239.98-195.616 79.352-79.351 163.27-177.396 224.072-261.235l2.739-3.788 1.793-2.494 1.776-2.48 1.757-2.467 1.74-2.452 2.576-3.652 2.535-3.62 1.667-2.394 1.648-2.38 1.63-2.364 1.612-2.35 2.381-3.494 1.565-2.31 1.545-2.296 2.282-3.412 1.497-2.254 2.209-3.35 1.448-2.214 1.428-2.196 1.409-2.18 1.389-2.161 1.368-2.145 1.349-2.127 1.328-2.11 1.308-2.09 1.287-2.074 1.267-2.056 1.246-2.037 1.225-2.018 1.205-2 1.183-1.98 1.162-1.962 1.14-1.942 1.12-1.923 1.098-1.904c0.182-0.315 0.362-0.63 0.541-0.944l1.066-1.873 1.044-1.854 0.013-0.026 0.596-1.165 0.88-1.743 0.432-0.864 0.848-1.715 0.828-1.695 0.806-1.677 0.396-0.83 0.775-1.648 0.38-0.816 0.743-1.618 0.363-0.801 0.712-1.588 0.348-0.786 0.68-1.558 0.66-1.537 0.637-1.516 0.616-1.495 0.596-1.475c0.195-0.488 0.386-0.972 0.574-1.453l0.552-1.433 0.269-0.708 0.52-1.4 0.5-1.378c0.163-0.455 0.322-0.907 0.478-1.356l0.456-1.334a127.08 127.08 0 0 0 1.961-6.333l0.328-1.198 0.306-1.175 0.284-1.151c0.274-1.14 0.515-2.243 0.724-3.311 0.4-2.05 0.658-3.858 0.798-5.408L837 187l-0.588 0.056a54.222 54.222 0 0 0-4.454 0.663l-0.469 0.09c-1.068 0.208-2.172 0.449-3.311 0.723l-1.151 0.284-1.175 0.306-1.198 0.328a127.082 127.082 0 0 0-6.333 1.96l-1.334 0.457c-0.449 0.156-0.9 0.315-1.356 0.478l-1.379 0.5-1.4 0.52-0.707 0.269-1.433 0.552c-0.48 0.188-0.965 0.38-1.453 0.574l-1.475 0.596-1.495 0.616-1.516 0.638-1.537 0.659-1.558 0.68-0.786 0.348-1.588 0.712-0.801 0.363-1.618 0.744c-0.542 0.251-1.088 0.506-1.637 0.764l-1.657 0.786-1.677 0.806-1.695 0.828-0.855 0.421-1.724 0.859-1.743 0.88-1.762 0.9-1.78 0.922-0.897 0.468a30 30 0 0 1-32.28-2.844C681.744 152.743 599.1 124 512 124z m0 89c33.137 0 60 26.863 60 60s-26.863 60-60 60-60-26.863-60-60 26.863-60 60-60z" fill="#ffffff" /></svg>